<?xml version="1.0" encoding="utf-8"?>
<!-- Svg Vector Icons : http://www.onlinewebfonts.com/icon -->
<!DOCTYPE svg PUBLIC "-//W3C//DTD SVG 1.1//EN" "http://www.w3.org/Graphics/SVG/1.1/DTD/svg11.dtd">
<svg version="1.1" xmlns="http://www.w3.org/2000/svg" xmlns:xlink="http://www.w3.org/1999/xlink" x="0px" y="0px" viewBox="0 0 1000 1000" enable-background="new 0 0 1000 1000" xml:space="preserve">
<metadata> Svg Vector Icons : http://www.onlinewebfonts.com/icon </metadata>
<g><path d="M990,199.7L764.6,12.4l-63.7,75.4l225.4,187.2L990,199.7L990,199.7z M296.7,85.4L232.9,10L10,199.7L73.7,275L296.7,85.4L296.7,85.4z M524.5,309.1H451v291.8l232.7,138.6l36.8-60.8l-196-114.3L524.5,309.1L524.5,309.1z M500,114.6c-245,0-441,197-441,437.7C59,793,255,990,500,990c242.6,0,441-197,441-437.7C941,311.5,742.6,114.6,500,114.6L500,114.6z M500,892.7c-188.7,0-343-153.2-343-340.5c0-187.2,154.3-340.4,343-340.4c188.7,0,343,153.2,343,340.4C843,742,688.7,892.7,500,892.7z"/></g>
</svg>